<?xml version="1.0" encoding="UTF-8"?>
<!DOCTYPE svg PUBLIC "-//W3C//DTD SVG 1.1//EN" "http://www.w3.org/Graphics/SVG/1.1/DTD/svg11.dtd">
<!-- Creator: CorelDRAW 2020 (64-Bit) -->
<svg xmlns="http://www.w3.org/2000/svg" xml:space="preserve" width="210mm" height="297mm" version="1.1" style="shape-rendering:geometricPrecision; text-rendering:geometricPrecision; image-rendering:optimizeQuality; fill-rule:evenodd; clip-rule:evenodd"
viewBox="0 0 21000 29700"
 xmlns:xlink="http://www.w3.org/1999/xlink"
 xmlns:xodm="http://www.corel.com/coreldraw/odm/2003">
 <defs>
  <style type="text/css">
   <![CDATA[
    .str1 {stroke:#373435;stroke-width:35.28;stroke-miterlimit:22.9256}
    .str0 {stroke:#373435;stroke-width:52.92;stroke-linecap:round;stroke-miterlimit:22.9256;stroke-dasharray:52.920000 158.760000}
    .fil2 {fill:none}
    .fil0 {fill:#D2D3D5}
    .fil4 {fill:#373435}
    .fil3 {fill:#0C57B4}
    .fil1 {fill:#BEEFFF}
    .fil5 {fill:white}
    .fil6 {fill:#373435;fill-rule:nonzero}
   ]]>
  </style>
    <clipPath id="id0">
     <path d="M1926.34 11031.69l3055.95 0 0 3575.96 -3055.95 0 0 -3575.96z"/>
    </clipPath>
     <clipPath id="id1">
      <path d="M1926.34 13976.09c351.12,-178.35 825.65,-410.63 1106.27,-511.81 486.17,-175.29 1193.94,-701.17 1451.91,-1217.12 180.92,-361.84 361.85,-793.61 478.89,-1215.47l13.17 0c-30.19,137.52 -173.1,776.08 -281.98,1046.81 -122.37,304.28 -535.74,1167.49 -1051.68,1554.44 -420.62,315.46 -1023.64,652.91 -1264.37,974.71l-452.21 0 0 -631.56z"/>
     </clipPath>
     <clipPath id="id2">
      <path d="M1926.34 11031.69l3055.95 0 0 3575.96 -3055.95 0 0 -3575.96z"/>
     </clipPath>
 </defs>
 <g id="Capa_x0020_1">
  <metadata id="CorelCorpID_0Corel-Layer"/>
  <g id="_2134358559024">
   <polygon class="fil0" points="1926.34,11031.69 4982.29,11031.69 4982.29,14607.65 1926.34,14607.65 "/>
   <g style="clip-path:url(#id0)">
    <g>
     <path id="1" class="fil1" d="M1478.17 14208.42c0,0 1068.27,-568.85 1554.44,-744.14 486.17,-175.29 1193.94,-701.17 1451.91,-1217.12 257.97,-515.95 515.98,-1174.07 588.74,-1742.93 72.76,-568.86 165.36,19.84 165.36,19.84l-188.5 439.87 -67.79 41.34c0,0 -165.36,768.94 -287.73,1073.22 -122.37,304.28 -535.74,1167.49 -1051.68,1554.44 -515.94,386.95 -1306.4,806.98 -1365.93,1190.63 -59.53,383.65 -1150.94,112.45 -798.82,-615.15z"/>
    </g>
    <g style="clip-path:url(#id1)">
     <g>
      <g>
       <path id="2" class="fil2 str0" d="M1579.15 15041.85c0,0 426.64,-750.76 932.66,-1018.65 506.02,-267.89 883.08,-484.52 1028.58,-578.78 45.53,-29.49 269.52,-164.5 409.98,-321.17 308.42,-344.01 631.28,-868.42 724.44,-1145.64 135.59,-403.48 350.58,-1048.43 377.04,-1256.79"/>
      </g>
     </g>
    </g>
    <g style="clip-path:url(#id2)">
     <path class="fil2 str1" d="M1478.17 14208.42c0,0 1068.27,-568.85 1554.44,-744.14 486.17,-175.29 1193.94,-701.17 1451.91,-1217.12 257.97,-515.95 515.98,-1174.07 588.74,-1742.93 72.76,-568.86 165.36,19.84 165.36,19.84l-188.5 439.87 -67.79 41.34c0,0 -165.36,768.94 -287.73,1073.22 -122.37,304.28 -535.74,1167.49 -1051.68,1554.44 -515.94,386.95 -1306.4,806.98 -1365.93,1190.63 -59.53,383.65 -1150.94,112.45 -798.82,-615.15z"/>
     <path class="fil3" d="M2910.85 12042.83l578.76 0c39.25,0 23.81,-34.32 67.39,-34.32 32.19,0 58.29,34.24 58.29,76.48 0,83.11 -56.21,54.59 -56.21,94.68l0 66.55 0 681.3c0,58.18 -29.68,155.28 -101.7,155.28 -39.57,0 -69.49,-36.15 -90.68,-84.76 -19.94,-45.74 16.21,-69.49 -84.25,-8.58 -115.66,70.12 -237.05,150.15 -404.09,163.86 -412.68,33.89 -653.56,-341.11 -692.04,-852.48 -38.48,-511.37 379.31,-1002.89 757.36,-993.04 161.43,4.2 265.44,15.82 385.1,125.27 32,29.26 111.19,-21.31 140.77,-43.34l112.45 152.96 -483.66 362.99c0,0 -91.5,-44.53 -76.69,-204.14 9.98,-107.83 40.51,-121.38 -119.96,-122.57 -60,-0.47 -166.49,-21.73 -242.43,211.42 -29.53,90.67 -46.08,192.27 -46.08,299.56 0,383.12 210.99,693.7 471.24,693.7 23.05,0 45.7,-2.46 67.86,-7.16l0 -530.27 -209.92 0c-17.34,0 -31.51,-14.17 -31.51,-31.51l0 -171.88z"/>
     <g>
      <path class="fil4" d="M3851.35 12612.62l398.54 0 26.46 0 0 26.46 0 1711.48c24.32,3.22 46.13,10.77 62.81,21.19 24.25,15.15 39.05,36.65 39.05,61.46 0,26.2 -16.54,48.73 -43.28,63.94 -22.23,12.65 -52.34,20.49 -85.04,20.49l-398.54 0c-32.7,0 -62.82,-7.84 -85.05,-20.49 -26.74,-15.21 -43.28,-37.74 -43.28,-63.94 0,-24.39 14.3,-45.56 37.81,-60.67 16.92,-10.86 39.19,-18.73 64.06,-22.02l0 -1711.44 0 -26.46 26.46 0zm0 26.46l398.54 0 0 1727.68c0,10.76 -1.32,8.17 9.48,8.72 51.8,2.72 92.38,27.53 92.38,57.73 0,32.01 -45.6,57.97 -101.86,57.97l-398.54 0c-56.26,0 -101.87,-25.96 -101.87,-57.97 0,-29.66 39.14,-54.14 89.64,-57.57 15.47,-1.04 12.23,1.86 12.23,-15.31l0 -1721.25zm460.01 0l274.51 0 0 579.45c0,35.16 -24.43,63.67 -54.57,63.67 -30.14,0 -54.57,-28.51 -54.57,-63.67 0,-230.28 -68.35,-427.52 -165.37,-509.73l0 -69.72zm-521.48 0l-274.51 0 0 579.45c0,35.16 24.43,63.67 54.57,63.67 30.14,0 54.57,-28.51 54.57,-63.67 0,-230.28 68.35,-427.52 165.37,-509.73l0 -69.72zm521.48 -26.46l274.51 0 26.46 0 0 26.46 0 579.45c0,24.03 -8.57,46.05 -22.39,62.18 -14.8,17.26 -35.53,27.95 -58.64,27.95 -23.12,0 -43.84,-10.69 -58.64,-27.95 -13.82,-16.13 -22.39,-38.15 -22.39,-62.18 0,-110.71 -16.08,-213.28 -43.62,-298.24l-0.03 0.01c-27.79,-85.66 -66.86,-152.83 -112.31,-191.34l-9.41 -7.97 0 -12.19 0 -69.72 0 -26.46 26.46 0zm-795.99 0l274.51 0 26.46 0 0 26.46 0 69.72 0 12.19 -9.41 7.97c-45.45,38.51 -84.52,105.68 -112.31,191.34l-0.03 -0.01c-27.54,84.96 -43.62,187.53 -43.62,298.24 0,24.03 -8.57,46.05 -22.39,62.18 -14.8,17.26 -35.53,27.95 -58.64,27.95 -23.12,0 -43.84,-10.69 -58.64,-27.95 -13.82,-16.13 -22.39,-38.15 -22.39,-62.18l0 -579.45 0 -26.46 26.46 0z"/>
      <path id="1" class="fil5" d="M3851.35 12639.08l398.54 0 0 1727.68c0,10.76 -1.32,8.17 9.48,8.72 51.8,2.72 92.38,27.53 92.38,57.73 0,32.01 -45.6,57.97 -101.86,57.97l-398.54 0c-56.26,0 -101.87,-25.96 -101.87,-57.97 0,-29.66 39.14,-54.14 89.64,-57.57 15.47,-1.04 12.23,1.86 12.23,-15.31l0 -1721.25zm460.01 0l274.51 0 0 579.45c0,35.16 -24.43,63.67 -54.57,63.67 -30.14,0 -54.57,-28.51 -54.57,-63.67 0,-230.28 -68.35,-427.52 -165.37,-509.73l0 -69.72zm-521.48 0l-274.51 0 0 579.45c0,35.16 24.43,63.67 54.57,63.67 30.14,0 54.57,-28.51 54.57,-63.67 0,-230.28 68.35,-427.52 165.37,-509.73l0 -69.72z"/>
     </g>
    </g>
   </g>
   <g>
    <path class="fil6" d="M4982.29 11066.62l-3055.95 0 0 -69.86 3055.95 0 35.28 34.93 -35.28 34.93zm0 -69.86l35.28 0 0 34.93 -35.28 -34.93zm-35.28 3610.89l0 -3575.96 70.56 0 0 3575.96 -35.28 34.93 -35.28 -34.93zm70.56 0l0 34.93 -35.28 0 35.28 -34.93zm-3091.23 -34.93l3055.95 0 0 69.86 -3055.95 0 -35.28 -34.93 35.28 -34.93zm0 69.86l-35.28 0 0 -34.93 35.28 34.93zm35.28 -3610.89l0 3575.96 -70.56 0 0 -3575.96 35.28 -34.93 35.28 34.93zm-70.56 0l0 -34.93 35.28 0 -35.28 34.93z"/>
   </g>
   <polygon class="fil3" points="5484.99,12819.67 19577.38,12819.67 19577.38,13045.86 5484.99,13045.86 "/>
   <path class="fil6" d="M5893.05 11955.84l0 -272.69 353.69 0 0 557.27c-67.74,81.74 -127.55,137.56 -179.43,167.14 -52.06,29.59 -113.76,44.23 -185.13,44.23 -87.9,0 -159.6,-26.54 -214.93,-79.61 -55.33,-52.77 -98.25,-131.76 -128.76,-236.69 -30.5,-104.62 -45.68,-225.1 -45.68,-360.83 0,-143.05 16.72,-267.2 49.99,-373.04 33.27,-105.53 82.05,-185.75 146.34,-240.65 50.16,-42.4 117.72,-63.45 202.53,-63.45 81.7,0 142.89,13.12 183.39,39.35 40.68,26.23 74.29,66.8 101.01,122.01 26.71,55.21 46.88,125.05 60.33,209.54l-220.29 70.16c-9.13,-49.72 -24.47,-87.85 -46.19,-114.08 -21.72,-26.54 -49.3,-39.65 -83.08,-39.65 -49.99,0 -89.97,30.81 -119.79,92.42 -29.82,61.61 -44.65,159.22 -44.65,292.51 0,141.52 15,242.79 45.17,303.49 29.99,60.7 72.04,91.2 125.82,91.2 25.51,0 49.81,-6.41 73.09,-19.52 23.09,-13.12 49.63,-35.39 79.62,-66.5l0 -122.61 -153.05 0zm492.27 473.99l0 -1310.34 381.27 0c70.67,0 124.79,10.67 162.02,32.33 37.4,21.35 67.57,61.31 90.49,119.26 22.92,58.26 34.3,129.32 34.3,212.9 0,72.59 -8.79,135.43 -26.37,188.19 -17.41,53.08 -41.54,95.78 -72.4,128.72 -19.47,20.74 -46.36,38.13 -80.32,51.85 27.24,16.17 47.06,32.03 59.47,48.19 8.28,10.68 20.51,33.86 36.54,68.94 15.86,35.07 26.54,62.22 31.89,81.44l111.17 378.52 -258.54 0 -122.21 -399.57c-15.51,-51.85 -29.3,-85.4 -41.37,-100.96 -16.54,-20.13 -35.33,-30.2 -56.19,-30.2l-20.16 0 0 530.73 -229.59 0zm229.59 -777.79l96.69 0c10.34,0 30.68,-6.1 60.68,-17.99 15.16,-5.19 27.57,-18.92 37.05,-41.18 9.65,-22.27 14.48,-47.58 14.48,-76.25 0,-42.4 -7.59,-75.04 -22.75,-97.61 -15.17,-22.88 -43.61,-34.16 -85.49,-34.16l-100.66 0 0 267.19zm1035.91 -532.55l228.55 0 0 780.53c0,77.17 -6.89,150.37 -20.51,219 -13.61,68.93 -34.99,129.02 -64.12,180.57 -29.13,51.55 -59.64,87.54 -91.53,108.58 -44.46,28.98 -97.9,43.62 -160.12,43.62 -36.02,0 -75.33,-4.57 -117.9,-13.42 -42.57,-8.85 -78.25,-26.54 -106.87,-53.07 -28.61,-26.54 -54.81,-64.06 -78.42,-112.86 -23.79,-48.8 -39.99,-99.13 -48.78,-150.98 -14.13,-83.27 -21.2,-157.08 -21.2,-221.44l0 -780.53 228.56 0 0 799.13c0,71.38 11.2,127.2 33.43,167.15 22.41,40.27 53.43,60.4 93.08,60.4 39.13,0 69.98,-19.83 92.39,-59.48 22.23,-39.35 33.44,-95.47 33.44,-168.07l0 -799.13zm378.51 0l380.58 0c82.9,0 144.96,34.77 186.32,104.62 41.2,69.84 61.88,169.28 61.88,298.3 0,132.38 -22.58,236.08 -67.56,310.51 -44.99,74.72 -113.76,111.94 -206.15,111.94l-125.48 0 0 484.97 -229.59 0 0 -1310.34zm229.59 560l56.36 0c44.47,0 75.67,-13.72 93.59,-40.87 17.93,-27.15 26.89,-61.92 26.89,-104.31 0,-41.18 -7.75,-75.95 -23.44,-104.62 -15.51,-28.68 -44.81,-43.01 -87.91,-43.01l-65.49 0 0 292.81zm489.34 96.08c0,-213.81 33.61,-380.35 101,-499.31 67.4,-119.26 161.16,-178.74 281.47,-178.74 123.25,0 218.22,58.57 284.92,175.39 66.71,117.12 99.97,281.22 99.97,491.99 0,153.11 -14.47,278.48 -43.6,376.39 -29.14,97.91 -71.36,174.16 -126.34,228.76 -55.16,54.59 -123.76,81.74 -205.98,81.74 -83.42,0 -152.55,-23.49 -207.36,-70.46 -54.64,-47.27 -99.1,-121.7 -133.06,-223.57 -33.96,-101.57 -51.02,-229.07 -51.02,-382.19zm228.55 0.92c0,132.07 13.96,227.23 41.72,284.88 27.92,57.65 65.84,86.63 113.76,86.63 49.12,0 87.38,-28.37 114.27,-84.8 27.07,-56.73 40.51,-158 40.51,-304.71 0,-123.22 -14.13,-213.2 -42.23,-269.94 -28.27,-57.03 -66.36,-85.4 -114.62,-85.4 -46.2,0 -83.43,28.98 -111.35,86.62 -28.1,57.65 -42.06,153.43 -42.06,286.72zm955.07 -657l696.01 0 0 323.92 -233.73 0 0 986.42 -228.56 0 0 -986.42 -233.72 0 0 -323.92zm734.27 656.08c0,-213.81 33.61,-380.35 101,-499.31 67.4,-119.26 161.17,-178.74 281.48,-178.74 123.24,0 218.21,58.57 284.91,175.39 66.71,117.12 99.98,281.22 99.98,491.99 0,153.11 -14.48,278.48 -43.61,376.39 -29.13,97.91 -71.36,174.16 -126.34,228.76 -55.16,54.59 -123.76,81.74 -205.98,81.74 -83.42,0 -152.55,-23.49 -207.35,-70.46 -54.64,-47.27 -99.11,-121.7 -133.07,-223.57 -33.96,-101.57 -51.02,-229.07 -51.02,-382.19zm228.55 0.92c0,132.07 13.97,227.23 41.72,284.88 27.92,57.65 65.84,86.63 113.76,86.63 49.12,0 87.39,-28.37 114.27,-84.8 27.07,-56.73 40.51,-158 40.51,-304.71 0,-123.22 -14.13,-213.2 -42.23,-269.94 -28.27,-57.03 -66.36,-85.4 -114.62,-85.4 -46.2,0 -83.42,28.98 -111.35,86.62 -28.09,57.65 -42.06,153.43 -42.06,286.72zm660.85 -657l380.58 0c82.91,0 144.96,34.77 186.32,104.62 41.2,69.84 61.88,169.28 61.88,298.3 0,132.38 -22.58,236.08 -67.56,310.51 -44.99,74.72 -113.76,111.94 -206.15,111.94l-125.48 0 0 484.97 -229.59 0 0 -1310.34zm229.59 560l56.36 0c44.47,0 75.67,-13.72 93.6,-40.87 17.92,-27.15 26.88,-61.92 26.88,-104.31 0,-41.18 -7.75,-75.95 -23.44,-104.62 -15.51,-28.68 -44.81,-43.01 -87.9,-43.01l-65.5 0 0 292.81zm518.3 -560l228.56 0 0 988.24 357.82 0 0 322.1 -586.38 0 0 -1310.34zm1145.36 1094.39l-259.24 0 -37.22 215.95 -233.56 0 278.71 -1310.34 250.45 0 277.5 1310.34 -239.58 0 -37.06 -215.95zm-48.44 -283.66l-80.83 -470.95 -81.19 470.95 162.02 0zm358 66.18l217.18 -24.09c4.66,62.22 14.31,109.8 28.79,142.13 23.61,52.77 57.22,79.31 101,79.31 32.58,0 57.75,-13.42 75.33,-40.57 17.75,-27.14 26.54,-58.56 26.54,-94.25 0,-33.85 -8.27,-64.36 -24.99,-91.2 -16.72,-26.84 -55.67,-51.85 -116.87,-75.95 -100.31,-39.65 -171.67,-92.72 -214.41,-158.91 -43.1,-65.88 -64.64,-150.07 -64.64,-252.55 0,-67.1 11.03,-130.55 33.09,-190.33 22.06,-60.09 55.16,-107.06 99.45,-141.22 44.3,-34.16 104.98,-51.25 182.02,-51.25 94.63,0 166.68,31.12 216.32,93.64 49.64,62.23 79.11,161.36 88.59,297.39l-215.11 22.57c-5.68,-59.47 -17.75,-102.79 -36.02,-129.63 -18.44,-27.14 -43.78,-40.56 -76.01,-40.56 -26.55,0 -46.72,10.06 -60.16,29.89 -13.44,19.82 -20.17,44.23 -20.17,72.9 0,20.74 5.52,39.34 16.38,56.12 10.52,17.39 36.02,33.25 76.36,48.19 99.97,38.13 171.5,76.87 214.59,115.91 43.26,39.04 74.81,87.23 94.45,145.18 19.66,57.65 29.48,122.32 29.48,193.99 0,83.88 -13.1,161.36 -39.3,232.43 -26.37,70.76 -62.91,124.75 -110.14,161.35 -47.06,36.6 -106.35,54.9 -178.05,54.9 -125.83,0 -213.05,-43.01 -261.48,-128.72 -48.43,-85.7 -75.84,-194.59 -82.22,-326.67zm786.16 -876.91l612.24 0 0 280 -382.65 0 0 208.63 354.72 0 0 267.19 -354.72 0 0 258.05 394.02 0 0 296.47 -623.61 0 0 -1310.34zm749.96 1310.34l0 -1310.34 381.27 0c70.67,0 124.79,10.67 162.02,32.33 37.4,21.35 67.56,61.31 90.49,119.26 22.92,58.26 34.3,129.32 34.3,212.9 0,72.59 -8.79,135.43 -26.37,188.19 -17.41,53.08 -41.54,95.78 -72.4,128.72 -19.47,20.74 -46.36,38.13 -80.32,51.85 27.24,16.17 47.06,32.03 59.47,48.19 8.28,10.68 20.51,33.86 36.54,68.94 15.86,35.07 26.54,62.22 31.89,81.44l111.17 378.52 -258.54 0 -122.21 -399.57c-15.51,-51.85 -29.3,-85.4 -41.37,-100.96 -16.54,-20.13 -35.33,-30.2 -56.19,-30.2l-20.16 0 0 530.73 -229.59 0zm229.59 -777.79l96.69 0c10.34,0 30.68,-6.1 60.68,-17.99 15.16,-5.19 27.57,-18.92 37.05,-41.18 9.65,-22.27 14.48,-47.58 14.48,-76.25 0,-42.4 -7.59,-75.04 -22.75,-97.61 -15.17,-22.88 -43.61,-34.16 -85.49,-34.16l-100.66 0 0 267.19zm877.32 344.36l217.18 -24.09c4.66,62.22 14.31,109.8 28.79,142.13 23.61,52.77 57.22,79.31 101,79.31 32.58,0 57.75,-13.42 75.33,-40.57 17.75,-27.14 26.54,-58.56 26.54,-94.25 0,-33.85 -8.27,-64.36 -24.99,-91.2 -16.72,-26.84 -55.67,-51.85 -116.87,-75.95 -100.31,-39.65 -171.67,-92.72 -214.41,-158.91 -43.1,-65.88 -64.64,-150.07 -64.64,-252.55 0,-67.1 11.03,-130.55 33.09,-190.33 22.06,-60.09 55.16,-107.06 99.45,-141.22 44.3,-34.16 104.98,-51.25 182.02,-51.25 94.63,0 166.68,31.12 216.32,93.64 49.64,62.23 79.11,161.36 88.6,297.39l-215.12 22.57c-5.68,-59.47 -17.75,-102.79 -36.02,-129.63 -18.44,-27.14 -43.78,-40.56 -76.01,-40.56 -26.55,0 -46.71,10.06 -60.16,29.89 -13.44,19.82 -20.17,44.23 -20.17,72.9 0,20.74 5.52,39.34 16.38,56.12 10.52,17.39 36.03,33.25 76.36,48.19 99.97,38.13 171.5,76.87 214.59,115.91 43.26,39.04 74.81,87.23 94.45,145.18 19.66,57.65 29.48,122.32 29.48,193.99 0,83.88 -13.1,161.36 -39.3,232.43 -26.37,70.76 -62.91,124.75 -110.14,161.35 -47.06,36.6 -106.35,54.9 -178.05,54.9 -125.83,0 -213.05,-43.01 -261.48,-128.72 -48.43,-85.7 -75.84,-194.59 -82.22,-326.67zm773.75 69.24l219.24 0 0 364.19 -219.24 0 0 -364.19zm359.9 364.19l0 -1310.34 381.27 0c70.67,0 124.79,10.67 162.02,32.33 37.4,21.35 67.56,61.31 90.49,119.26 22.92,58.26 34.3,129.32 34.3,212.9 0,72.59 -8.79,135.43 -26.37,188.19 -17.41,53.08 -41.54,95.78 -72.4,128.72 -19.47,20.74 -46.36,38.13 -80.32,51.85 27.24,16.17 47.06,32.03 59.47,48.19 8.28,10.68 20.51,33.86 36.54,68.94 15.86,35.07 26.54,62.22 31.89,81.44l111.17 378.52 -258.54 0 -122.21 -399.57c-15.51,-51.85 -29.3,-85.4 -41.37,-100.96 -16.54,-20.13 -35.33,-30.2 -56.19,-30.2l-20.16 0 0 530.73 -229.59 0zm229.59 -777.79l96.69 0c10.34,0 30.68,-6.1 60.68,-17.99 15.16,-5.19 27.57,-18.92 37.05,-41.18 9.65,-22.27 14.48,-47.58 14.48,-76.25 0,-42.4 -7.59,-75.04 -22.75,-97.61 -15.17,-22.88 -43.61,-34.16 -85.49,-34.16l-100.66 0 0 267.19zm559.32 413.6l219.24 0 0 364.19 -219.24 0 0 -364.19zm356.79 -946.15l228.56 0 0 988.24 357.82 0 0 322.1 -586.38 0 0 -1310.34zm677.39 946.15l219.25 0 0 364.19 -219.25 0 0 -364.19z"/>
   <path class="fil6" d="M5751.49 13523.19l-273.79 0 0 592.67 276.39 0 0 -85.51 -206.12 0 0 -184.58 194.67 0 0 -85.51 -194.67 0 0 -151.56 203.52 0 0 -85.51zm180.62 11.85l-72.36 0 0 96.52 72.36 0 0 -96.52zm-132.73 157.48l0 75.36 61.94 0 0 338.67c0,71.96 -20.3,92.28 -58.3,92.28 -8.85,0 -20.3,-1.69 -35.4,-4.23l0 73.66c18.74,5.93 36.44,8.47 53.62,8.47 72.87,-0.85 109.31,-57.58 109.31,-170.18l0 -414.03 -131.17 0zm330.52 -8.46c-103.58,0 -141.06,107.53 -141.06,220.13 0,160.02 65.59,220.14 146.79,220.14 32.79,0 68.7,-10.16 106.7,-29.64l0 -73.66c-7.8,4.24 -25.5,10.16 -52.05,17.78 -26.55,6.78 -45.81,10.16 -58.3,10.16 -44.76,0 -69.23,-38.1 -72.87,-113.45l196.23 0c0.52,-10.16 0.52,-20.32 0.52,-31.33 0,-146.47 -42.16,-220.13 -125.96,-220.13zm-1.04 60.11c45.28,0 64.02,50.8 64.02,127l-0.52 9.32 -134.29 0 0 -9.32c0,-78.74 22.38,-127 70.79,-127zm310.74 -60.11c-74.95,0 -141.58,69.43 -141.58,220.13 0,149.86 65.59,220.14 141.06,220.14 31.75,0 63.5,-11.86 94.21,-34.72l0 -76.2c-22.38,16.09 -44.24,24.56 -65.06,27.1 -9.37,2.54 -18.22,3.38 -26.03,3.38 -49.97,0 -74.95,-40.64 -74.95,-139.7 0,-99.06 24.98,-139.7 74.95,-139.7 7.81,0 16.66,0.85 26.03,3.39 20.82,2.54 42.68,11.01 65.06,27.09l0 -76.2c-30.71,-22.86 -61.94,-34.71 -93.69,-34.71zm403.4 8.46l-69.23 0 0 305.65c-18.74,29.64 -51.01,49.96 -76.51,50.8 -26.55,0 -44.25,-21.16 -44.25,-66.04l0 -290.41 -69.23 0 0 303.96c0,82.13 36.96,127 88.49,127 33.31,0 72.87,-22.01 101.5,-55.03l0 47.41 69.23 0 0 -423.34zm195.71 -8.46c-74.96,0 -141.58,69.43 -141.58,220.13 0,149.86 65.59,220.14 141.05,220.14 31.76,0 63.51,-11.86 94.22,-34.72l0 -76.2c-22.39,16.09 -44.25,24.56 -65.06,27.1 -9.37,2.54 -18.22,3.38 -26.03,3.38 -49.97,0 -74.96,-40.64 -74.96,-139.7 0,-99.06 24.99,-139.7 74.96,-139.7 7.81,0 16.66,0.85 26.03,3.39 20.81,2.54 42.67,11.01 65.06,27.09l0 -76.2c-30.71,-22.86 -61.94,-34.71 -93.69,-34.71zm221.74 -149.02l-72.35 0 0 96.52 72.35 0 0 -96.52zm-70.27 157.48l-0.52 423.34 68.71 0 0.52 -423.34 -68.71 0zm312.3 -190.5l-61.42 0 -28.62 131.24 47.36 0 42.68 -131.24zm-109.82 200.67c-37.48,23.7 -57.26,68.58 -67.67,119.38 -10.41,50.8 -10.41,113.45 0,164.25 10.41,50.8 30.19,95.67 67.67,120.23 18.73,11.85 40.6,17.78 65.58,17.78 25.51,0 47.37,-5.93 66.11,-17.78 37.47,-24.56 57.26,-69.43 67.14,-120.23 10.42,-50.8 10.42,-113.45 0,-164.25 -9.88,-50.8 -29.67,-95.68 -67.14,-119.38 -18.74,-12.71 -40.6,-18.63 -66.11,-18.63 -24.98,0 -46.85,5.92 -65.58,18.63zm-6.25 201.5c0,-98.21 23.42,-144.78 71.83,-144.78 24.47,0 42.68,11.86 54.65,35.56 11.98,23.71 17.7,60.12 17.7,109.22 0,49.11 -5.72,85.52 -17.7,109.22 -11.97,23.71 -30.18,35.56 -54.65,35.56 -48.41,0 -71.83,-46.56 -71.83,-144.78zm440.35 -219.29c-34.35,0 -74.43,23.71 -102.02,55.04l0 -47.42 -69.22 0 0 423.34 69.22 0 0 -305.65c18.74,-29.63 49.97,-49.95 76.52,-50.8 26.54,0 44.24,21.17 44.24,66.04l0 290.41 69.23 0 0 -303.95c0,-82.13 -37.47,-127.01 -87.97,-127.01zm552.79 -161.71l-69.23 0 0 202.36c-28.11,-27.94 -56.74,-41.49 -85.36,-41.49 -83.29,0 -113.99,103.29 -113.99,220.98 0,112.61 32.79,219.29 118.15,219.29 29.67,0 65.58,-27.1 87.97,-60.12l2.6 51.65 59.86 0 0 -592.67zm-129.09 236.22c20.3,0.85 40.08,11.01 59.86,32.18l0 209.12c-15.09,29.64 -39.04,48.26 -59.86,48.26 -47.36,0 -70.79,-48.26 -70.79,-143.93 0,-97.37 23.43,-145.63 70.79,-145.63zm326.36 -75.35c-103.58,0 -141.06,107.53 -141.06,220.13 0,160.02 65.59,220.14 146.79,220.14 32.79,0 68.7,-10.16 106.7,-29.64l0 -73.66c-7.81,4.24 -25.51,10.16 -52.05,17.78 -26.55,6.78 -45.81,10.16 -58.3,10.16 -44.76,0 -69.23,-38.1 -72.87,-113.45l196.23 0c0.52,-10.16 0.52,-20.32 0.52,-31.33 0,-146.47 -42.16,-220.13 -125.96,-220.13zm-1.04 60.11c45.28,0 64.02,50.8 64.02,127l-0.52 9.32 -134.29 0 0 -9.32c0,-78.74 22.38,-127 70.79,-127zm452.31 -60.11c-103.57,0 -141.05,107.53 -141.05,220.13 0,160.02 65.59,220.14 146.78,220.14 32.8,0 68.71,-10.16 106.71,-29.64l0 -73.66c-7.81,4.24 -25.51,10.16 -52.05,17.78 -26.55,6.78 -45.81,10.16 -58.3,10.16 -44.76,0 -69.23,-38.1 -72.87,-113.45l196.23 0c0.52,-10.16 0.52,-20.32 0.52,-31.33 0,-146.47 -42.16,-220.13 -125.97,-220.13zm-1.03 60.11c45.28,0 64.02,50.8 64.02,127l-0.52 9.32 -134.3 0 0 -9.32c0,-78.74 22.39,-127 70.8,-127zm298.25 -60.11c-66.11,0 -127.53,37.25 -127.53,130.39 0,27.09 5.2,49.95 11.45,64.34 6.77,14.4 20.3,28.79 29.15,35.56 8.85,6.78 27.59,14.4 35.92,16.94l18.74 5.08 21.34 5.92 11.96 3.39c4.17,0.85 16.14,5.93 20.3,9.31 11.46,9.32 19.27,22.02 19.27,49.11 0,39.79 -20.3,60.11 -60.38,60.11 -33.84,0 -71.83,-16.93 -112.95,-49.95l0 72.81c44.76,24.56 85.88,37.26 123.36,37.26 74.43,-0.85 119.19,-43.18 119.19,-135.47 0,-27.09 -6.24,-50.8 -14.57,-66.89 -7.81,-16.93 -23.95,-31.32 -34.88,-38.1 -10.93,-7.62 -31.74,-16.08 -41.64,-18.62l-18.73 -5.93 -8.85 -2.54c-0.52,-0.85 -2.08,-0.85 -3.65,-0.85 -13.01,-4.23 -16.65,-5.92 -26.54,-10.16 -4.69,-2.54 -8.33,-5.92 -10.93,-9.31 -4.16,-6.77 -8.33,-18.63 -8.33,-35.56 0,-39.79 28.1,-56.73 61.94,-56.73 28.63,0 59.86,10.16 93.69,29.64l0 -65.2c-30.71,-16.09 -62.98,-24.55 -97.33,-24.55zm192.59 -98.22l0 106.68 -49.97 0 0 75.36 49.97 0 -0.53 209.97c0,111.76 45.81,146.48 98.38,146.48 16.66,0 33.84,-3.39 51.01,-9.32l0 -60.11c-11.45,3.39 -20.82,5.08 -28.63,5.08 -34.35,0 -51.53,-27.09 -51.53,-82.13l0 -209.97 80.16 0 0 -75.36 -79.64 0 0 -106.68 -69.22 0zm464.29 106.68l-69.23 0 0 305.65c-18.74,29.64 -51.01,49.96 -76.52,50.8 -26.54,0 -44.24,-21.16 -44.24,-66.04l0 -290.41 -69.23 0 0 303.96c0,82.13 36.96,127 88.49,127 33.31,0 72.87,-22.01 101.5,-55.03l0 47.41 69.23 0 0 -423.34zm322.71 -169.33l-69.23 0 0 202.36c-28.11,-27.94 -56.74,-41.49 -85.36,-41.49 -83.28,0 -113.99,103.29 -113.99,220.98 0,112.61 32.79,219.29 118.15,219.29 29.67,0 65.59,-27.1 87.97,-60.12l2.6 51.65 59.86 0 0 -592.67zm-129.09 236.22c20.3,0.85 40.08,11.01 59.86,32.18l0 209.12c-15.09,29.64 -39.04,48.26 -59.86,48.26 -47.36,0 -70.78,-48.26 -70.78,-143.93 0,-97.37 23.42,-145.63 70.78,-145.63zm271.19 -224.37l-72.35 0 0 96.52 72.35 0 0 -96.52zm-70.27 157.48l-0.52 423.34 68.7 0 0.53 -423.34 -68.71 0zm202.48 10.17c-37.48,23.7 -57.26,68.58 -67.67,119.38 -10.41,50.8 -10.41,113.45 0,164.25 10.41,50.8 30.19,95.67 67.67,120.23 18.73,11.85 40.59,17.78 65.58,17.78 25.51,0 47.37,-5.93 66.11,-17.78 37.47,-24.56 57.26,-69.43 67.14,-120.23 10.42,-50.8 10.42,-113.45 0,-164.25 -9.88,-50.8 -29.67,-95.68 -67.14,-119.38 -18.74,-12.71 -40.6,-18.63 -66.11,-18.63 -24.99,0 -46.85,5.92 -65.58,18.63zm-6.25 201.5c0,-98.21 23.42,-144.78 71.83,-144.78 24.47,0 42.68,11.86 54.65,35.56 11.98,23.71 17.7,60.12 17.7,109.22 0,49.11 -5.72,85.52 -17.7,109.22 -11.97,23.71 -30.18,35.56 -54.65,35.56 -48.41,0 -71.83,-46.56 -71.83,-144.78zm387.26 -220.13c-66.1,0 -127.52,37.25 -127.52,130.39 0,27.09 5.2,49.95 11.45,64.34 6.77,14.4 20.3,28.79 29.15,35.56 8.85,6.78 27.58,14.4 35.91,16.94l18.74 5.08 21.34 5.92 11.97 3.39c4.17,0.85 16.14,5.93 20.3,9.31 11.45,9.32 19.26,22.02 19.26,49.11 0,39.79 -20.3,60.11 -60.38,60.11 -33.83,0 -71.82,-16.93 -112.95,-49.95l0 72.81c44.76,24.56 85.89,37.26 123.36,37.26 74.43,-0.85 119.2,-43.18 119.2,-135.47 0,-27.09 -6.25,-50.8 -14.58,-66.89 -7.8,-16.93 -23.94,-31.32 -34.87,-38.1 -10.93,-7.62 -31.75,-16.08 -41.64,-18.62l-18.74 -5.93 -8.84 -2.54c-0.53,-0.85 -2.09,-0.85 -3.65,-0.85 -13.01,-4.23 -16.65,-5.92 -26.55,-10.16 -4.68,-2.54 -8.33,-5.92 -10.93,-9.31 -4.16,-6.77 -8.33,-18.63 -8.33,-35.56 0,-39.79 28.11,-56.73 61.95,-56.73 28.62,0 59.85,10.16 93.69,29.64l0 -65.2c-30.72,-16.09 -62.98,-24.55 -97.34,-24.55zm354.99 8.46l-69.23 0 104.62 423.34 15.1 0 -35.4 152.4 60.38 0 142.63 -575.74 -69.76 0 -74.95 317.51 -73.39 -317.51zm780.24 127.01c0,-159.18 -51.53,-303.96 -187.38,-303.96 -135.33,0 -186.86,144.78 -186.86,303.96 0,160.02 51.53,303.95 186.86,303.95 135.85,0 187.38,-143.93 187.38,-303.95zm-104.62 -160.03c18.22,38.95 27.07,92.29 27.07,160.87 0,67.74 -8.85,121.08 -27.07,160.02 -18.22,38.1 -45.81,57.58 -82.76,57.58 -36.95,0 -64.02,-19.48 -82.24,-57.58 -18.22,-38.94 -27.07,-92.28 -27.07,-160.02 0,-68.58 8.85,-121.92 27.07,-160.87 18.22,-38.94 45.29,-58.42 82.24,-58.42 36.95,0 64.54,19.48 82.76,58.42zm172.81 -136.31l0 592.67 59.33 0 2.61 -51.65c23.42,34.72 58.82,60.12 88.49,60.12 84.84,0 118.15,-106.68 118.15,-219.29 0,-117.69 -30.19,-220.98 -114.51,-220.98 -28.63,0 -56.74,13.55 -84.84,41.49l0 -202.36 -69.23 0zm129.09 236.22c47.36,0 70.78,48.26 70.78,145.63 0,95.67 -23.42,143.93 -70.78,143.93 -21.35,0 -44.77,-18.62 -59.86,-48.26l0 -209.12c19.77,-21.17 39.56,-31.33 59.86,-32.18zm357.06 -74.51c-31.23,0 -61.94,22.02 -92.65,65.2l0 -57.58 -69.22 0 0 423.34 69.22 0 0 -292.95c29.67,-36.4 58.3,-55.03 86.41,-55.03 9.89,0 20.82,1.69 32.26,5.93l1.05 -82.98c-9.37,-4.23 -18.22,-5.93 -27.07,-5.93zm188.95 -0.84c-36.44,0 -74.96,9.31 -115.56,27.94l0 69.43c44.24,-19.48 79.64,-28.79 106.19,-28.79 42.67,0 64.02,24.55 64.02,74.51l0 29.63 -95.25 0c-45.81,0 -96.3,42.33 -96.3,132.93 0,87.2 36.44,133.77 86.93,133.77 33.83,0 73.9,-23.71 104.62,-59.27l0 51.65 69.23 0 0 -288.71c0,-106.68 -56.74,-143.09 -123.88,-143.09zm54.65 327.66c-24.47,28.79 -51.02,43.18 -79.12,44.03 -29.67,0 -48.93,-22.86 -48.93,-72.82 0,-47.41 25.5,-72.81 56.74,-72.81l71.31 0 0 101.6zm252.44 -327.66c-66.1,0 -127.52,37.25 -127.52,130.39 0,27.09 5.2,49.95 11.45,64.34 6.77,14.4 20.3,28.79 29.15,35.56 8.85,6.78 27.58,14.4 35.91,16.94l18.74 5.08 21.34 5.92 11.97 3.39c4.17,0.85 16.14,5.93 20.3,9.31 11.45,9.32 19.26,22.02 19.26,49.11 0,39.79 -20.3,60.11 -60.38,60.11 -33.83,0 -71.83,-16.93 -112.95,-49.95l0 72.81c44.76,24.56 85.89,37.26 123.36,37.26 74.43,-0.85 119.2,-43.18 119.2,-135.47 0,-27.09 -6.25,-50.8 -14.58,-66.89 -7.8,-16.93 -23.94,-31.32 -34.87,-38.1 -10.93,-7.62 -31.75,-16.08 -41.64,-18.62l-18.74 -5.93 -8.84 -2.54c-0.53,-0.85 -2.09,-0.85 -3.65,-0.85 -13.01,-4.23 -16.65,-5.92 -26.55,-10.16 -4.68,-2.54 -8.33,-5.92 -10.93,-9.31 -4.16,-6.77 -8.33,-18.63 -8.33,-35.56 0,-39.79 28.11,-56.73 61.95,-56.73 28.62,0 59.85,10.16 93.69,29.64l0 -65.2c-30.72,-16.09 -62.98,-24.55 -97.34,-24.55zm437.23 0c-103.58,0 -141.06,107.53 -141.06,220.13 0,160.02 65.59,220.14 146.79,220.14 32.79,0 68.7,-10.16 106.7,-29.64l0 -73.66c-7.8,4.24 -25.5,10.16 -52.05,17.78 -26.55,6.78 -45.81,10.16 -58.3,10.16 -44.76,0 -69.23,-38.1 -72.87,-113.45l196.23 0c0.52,-10.16 0.52,-20.32 0.52,-31.33 0,-146.47 -42.16,-220.13 -125.96,-220.13zm-1.04 60.11c45.28,0 64.02,50.8 64.02,127l-0.52 9.32 -134.29 0 0 -9.32c0,-78.74 22.38,-127 70.79,-127zm351.34 -59.27c-34.35,0 -74.43,23.71 -102.02,55.04l0 -47.42 -69.22 0 0 423.34 69.22 0 0 -305.65c18.74,-29.63 49.97,-49.95 76.51,-50.8 26.55,0 44.25,21.17 44.25,66.04l0 290.41 69.23 0 0 -303.95c0,-82.13 -37.48,-127.01 -87.97,-127.01zm478.87 -161.71l-191.54 0 0 81.28 60.37 0 0 429.26 -60.37 0 0 82.13 191.54 0 0 -82.13 -60.38 0 0 -428.41 60.38 0 0 -82.13zm230.07 161.71c-34.36,0 -74.43,23.71 -102.03,55.04l0 -47.42 -69.22 0 0 423.34 69.22 0 0 -305.65c18.74,-29.63 49.97,-49.95 76.52,-50.8 26.54,0 44.24,21.17 44.24,66.04l0 290.41 69.23 0 0 -303.95c0,-82.13 -37.47,-127.01 -87.96,-127.01zm296.17 -170.18c-60.38,0 -121.28,32.18 -121.28,160.87l0 16.93 -36.44 0 0 75.36 36.44 0 0 347.98 69.23 0 0 -347.98 70.26 0 0 -75.36 -70.26 0 0 -16.93c0,-69.43 19.26,-93.98 57.25,-93.98 8.85,0 20.82,1.69 36.44,5.93l0 -68.58c-15.1,-2.54 -29.15,-4.24 -41.64,-4.24zm235.26 170.18c-31.23,0 -61.93,22.02 -92.65,65.2l0 -57.58 -69.22 0 0 423.34 69.22 0 0 -292.95c29.67,-36.4 58.3,-55.03 86.41,-55.03 9.89,0 20.82,1.69 32.27,5.93l1.04 -82.98c-9.37,-4.23 -18.22,-5.93 -27.07,-5.93zm188.95 -0.84c-36.44,0 -74.95,9.31 -115.55,27.94l0 69.43c44.23,-19.48 79.63,-28.79 106.18,-28.79 42.68,0 64.02,24.55 64.02,74.51l0 29.63 -95.25 0c-45.81,0 -96.3,42.33 -96.3,132.93 0,87.2 36.44,133.77 86.93,133.77 33.83,0 73.91,-23.71 104.62,-59.27l0 51.65 69.23 0 0 -288.71c0,-106.68 -56.74,-143.09 -123.88,-143.09zm54.65 327.66c-24.47,28.79 -51.01,43.18 -79.12,44.03 -29.67,0 -48.92,-22.86 -48.92,-72.82 0,-47.41 25.5,-72.81 56.73,-72.81l71.31 0 0 101.6zm264.41 -327.66c-103.57,0 -141.05,107.53 -141.05,220.13 0,160.02 65.59,220.14 146.78,220.14 32.8,0 68.71,-10.16 106.71,-29.64l0 -73.66c-7.81,4.24 -25.51,10.16 -52.05,17.78 -26.55,6.78 -45.81,10.16 -58.3,10.16 -44.76,0 -69.23,-38.1 -72.87,-113.45l196.23 0c0.52,-10.16 0.52,-20.32 0.52,-31.33 0,-146.47 -42.16,-220.13 -125.97,-220.13zm-1.03 60.11c45.28,0 64.02,50.8 64.02,127l-0.52 9.32 -134.3 0 0 -9.32c0,-78.74 22.39,-127 70.8,-127zm298.25 -60.11c-66.11,0 -127.53,37.25 -127.53,130.39 0,27.09 5.2,49.95 11.45,64.34 6.77,14.4 20.3,28.79 29.15,35.56 8.85,6.78 27.59,14.4 35.92,16.94l18.74 5.08 21.34 5.92 11.96 3.39c4.17,0.85 16.14,5.93 20.3,9.31 11.46,9.32 19.27,22.02 19.27,49.11 0,39.79 -20.3,60.11 -60.38,60.11 -33.84,0 -71.83,-16.93 -112.95,-49.95l0 72.81c44.76,24.56 85.88,37.26 123.36,37.26 74.43,-0.85 119.19,-43.18 119.19,-135.47 0,-27.09 -6.24,-50.8 -14.57,-66.89 -7.81,-16.93 -23.95,-31.32 -34.88,-38.1 -10.93,-7.62 -31.74,-16.08 -41.64,-18.62l-18.73 -5.93 -8.85 -2.54c-0.52,-0.85 -2.08,-0.85 -3.65,-0.85 -13.01,-4.23 -16.65,-5.92 -26.54,-10.16 -4.69,-2.54 -8.33,-5.92 -10.93,-9.31 -4.16,-6.77 -8.33,-18.63 -8.33,-35.56 0,-39.79 28.1,-56.73 61.94,-56.73 28.63,0 59.86,10.16 93.69,29.64l0 -65.2c-30.71,-16.09 -62.98,-24.55 -97.33,-24.55zm192.59 -98.22l0 106.68 -49.97 0 0 75.36 49.97 0 -0.53 209.97c0,111.76 45.81,146.48 98.38,146.48 16.66,0 33.84,-3.39 51.01,-9.32l0 -60.11c-11.45,3.39 -20.82,5.08 -28.63,5.08 -34.35,0 -51.53,-27.09 -51.53,-82.13l0 -209.97 80.16 0 0 -75.36 -79.64 0 0 -106.68 -69.22 0zm369.55 99.06c-31.23,0 -61.94,22.02 -92.65,65.2l0 -57.58 -69.22 0 0 423.34 69.22 0 0 -292.95c29.67,-36.4 58.3,-55.03 86.41,-55.03 9.89,0 20.82,1.69 32.27,5.93l1.04 -82.98c-9.37,-4.23 -18.22,-5.93 -27.07,-5.93zm330.01 7.62l-69.23 0 0 305.65c-18.74,29.64 -51.02,49.96 -76.52,50.8 -26.54,0 -44.24,-21.16 -44.24,-66.04l0 -290.41 -69.23 0 0 303.96c0,82.13 36.96,127 88.49,127 33.31,0 72.87,-22.01 101.5,-55.03l0 47.41 69.23 0 0 -423.34zm195.7 -8.46c-74.95,0 -141.57,69.43 -141.57,220.13 0,149.86 65.58,220.14 141.05,220.14 31.75,0 63.51,-11.86 94.21,-34.72l0 -76.2c-22.38,16.09 -44.24,24.56 -65.06,27.1 -9.37,2.54 -18.22,3.38 -26.03,3.38 -49.97,0 -74.95,-40.64 -74.95,-139.7 0,-99.06 24.98,-139.7 74.95,-139.7 7.81,0 16.66,0.85 26.03,3.39 20.82,2.54 42.68,11.01 65.06,27.09l0 -76.2c-30.7,-22.86 -61.94,-34.71 -93.69,-34.71zm174.38 -98.22l0 106.68 -49.97 0 0 75.36 49.97 0 -0.53 209.97c0,111.76 45.81,146.48 98.38,146.48 16.66,0 33.84,-3.39 51.01,-9.32l0 -60.11c-11.45,3.39 -20.82,5.08 -28.63,5.08 -34.35,0 -51.53,-27.09 -51.53,-82.13l0 -209.97 80.16 0 0 -75.36 -79.64 0 0 -106.68 -69.22 0zm464.29 106.68l-69.23 0 0 305.65c-18.74,29.64 -51.01,49.96 -76.51,50.8 -26.55,0 -44.25,-21.16 -44.25,-66.04l0 -290.41 -69.23 0 0 303.96c0,82.13 36.96,127 88.49,127 33.31,0 72.87,-22.01 101.5,-55.03l0 47.41 69.23 0 0 -423.34zm226.94 -7.62c-31.23,0 -61.94,22.02 -92.66,65.2l0 -57.58 -69.22 0 0 423.34 69.22 0 0 -292.95c29.67,-36.4 58.3,-55.03 86.41,-55.03 9.89,0 20.82,1.69 32.27,5.93l1.04 -82.98c-9.36,-4.23 -18.22,-5.93 -27.06,-5.93zm188.94 -0.84c-36.44,0 -74.95,9.31 -115.55,27.94l0 69.43c44.24,-19.48 79.63,-28.79 106.18,-28.79 42.68,0 64.02,24.55 64.02,74.51l0 29.63 -95.25 0c-45.81,0 -96.3,42.33 -96.3,132.93 0,87.2 36.44,133.77 86.93,133.77 33.83,0 73.91,-23.71 104.62,-59.27l0 51.65 69.23 0 0 -288.71c0,-106.68 -56.74,-143.09 -123.88,-143.09zm54.65 327.66c-24.47,28.79 -51.01,43.18 -79.12,44.03 -29.67,0 -48.92,-22.86 -48.92,-72.82 0,-47.41 25.5,-72.81 56.73,-72.81l71.31 0 0 101.6zm621.49 -488.53l-72.87 0 -107.75 467.36 -108.26 -467.36 -72.36 0 142.1 592.67 76.52 0 142.62 -592.67zm125.96 11.85l-72.35 0 0 96.52 72.35 0 0 -96.52zm-70.26 157.48l-0.53 423.34 68.71 0 0.52 -423.34 -68.7 0zm261.29 -8.46c-36.44,0 -74.95,9.31 -115.55,27.94l0 69.43c44.24,-19.48 79.64,-28.79 106.18,-28.79 42.68,0 64.02,24.55 64.02,74.51l0 29.63 -95.25 0c-45.8,0 -96.3,42.33 -96.3,132.93 0,87.2 36.44,133.77 86.93,133.77 33.83,0 73.91,-23.71 104.62,-59.27l0 51.65 69.23 0 0 -288.71c0,-106.68 -56.73,-143.09 -123.88,-143.09zm54.65 327.66c-24.46,28.79 -51.01,43.18 -79.12,44.03 -29.67,0 -48.92,-22.86 -48.92,-72.82 0,-47.41 25.5,-72.81 56.73,-72.81l71.31 0 0 101.6zm137.42 -488.53l-0.52 592.67 68.7 0 0.53 -592.67 -68.71 0z"/>
  </g>
 </g>
</svg>
